<mxfile host="app.diagrams.net" modified="2024-06-01T12:14:24.504Z" agent="Mozilla/5.0 (Windows NT 10.0; Win64; x64) AppleWebKit/537.36 (KHTML, like Gecko) Chrome/123.0.0.0 Safari/537.36 OPR/109.0.0.0" etag="LVyyPHybbETeBchlY8DT" version="24.4.13" type="device">
  <diagram name="Страница — 1" id="9TiphyvTbJPAZ76motCi">
    <mxGraphModel dx="3096" dy="1771" grid="1" gridSize="5" guides="0" tooltips="1" connect="1" arrows="1" fold="1" page="1" pageScale="1" pageWidth="3300" pageHeight="2339" math="0" shadow="0">
      <root>
        <mxCell id="0" />
        <mxCell id="1" parent="0" />
        <mxCell id="m8yTQZksTK6Z0LUmSfKA-2" value="" style="endArrow=none;html=1;rounded=0;strokeWidth=5;" edge="1" parent="1">
          <mxGeometry width="50" height="50" relative="1" as="geometry">
            <mxPoint x="160" y="1880" as="sourcePoint" />
            <mxPoint x="400" y="1880" as="targetPoint" />
          </mxGeometry>
        </mxCell>
        <mxCell id="m8yTQZksTK6Z0LUmSfKA-3" value="" style="endArrow=none;html=1;rounded=0;strokeWidth=5;exitX=1;exitY=1;exitDx=0;exitDy=0;entryX=1;entryY=0;entryDx=0;entryDy=0;" edge="1" parent="1" source="m8yTQZksTK6Z0LUmSfKA-4" target="m8yTQZksTK6Z0LUmSfKA-4">
          <mxGeometry width="50" height="50" relative="1" as="geometry">
            <mxPoint x="400" y="2080" as="sourcePoint" />
            <mxPoint x="400" y="240" as="targetPoint" />
          </mxGeometry>
        </mxCell>
        <mxCell id="m8yTQZksTK6Z0LUmSfKA-4" value="&lt;font style=&quot;font-size: 56px;&quot;&gt;LSTM&lt;sub&gt;t-1&lt;/sub&gt;&lt;/font&gt;" style="text;html=1;align=center;verticalAlign=middle;whiteSpace=wrap;rounded=0;strokeWidth=5;" vertex="1" parent="1">
          <mxGeometry x="160" y="400" width="240" height="1480" as="geometry" />
        </mxCell>
        <mxCell id="m8yTQZksTK6Z0LUmSfKA-6" value="" style="endArrow=none;html=1;rounded=0;exitX=1;exitY=0;exitDx=0;exitDy=0;entryX=0;entryY=0;entryDx=0;entryDy=0;strokeWidth=5;" edge="1" parent="1" source="m8yTQZksTK6Z0LUmSfKA-4" target="m8yTQZksTK6Z0LUmSfKA-4">
          <mxGeometry width="50" height="50" relative="1" as="geometry">
            <mxPoint x="660" y="330" as="sourcePoint" />
            <mxPoint x="710" y="280" as="targetPoint" />
          </mxGeometry>
        </mxCell>
        <mxCell id="m8yTQZksTK6Z0LUmSfKA-8" value="" style="endArrow=none;html=1;rounded=0;strokeWidth=5;exitX=0;exitY=1;exitDx=0;exitDy=0;entryX=1;entryY=1;entryDx=0;entryDy=0;" edge="1" parent="1" source="m8yTQZksTK6Z0LUmSfKA-11" target="m8yTQZksTK6Z0LUmSfKA-11">
          <mxGeometry width="50" height="50" relative="1" as="geometry">
            <mxPoint x="2870" y="1996.67" as="sourcePoint" />
            <mxPoint x="3110" y="1996.67" as="targetPoint" />
          </mxGeometry>
        </mxCell>
        <mxCell id="m8yTQZksTK6Z0LUmSfKA-9" value="" style="endArrow=none;html=1;rounded=0;strokeWidth=5;exitX=0;exitY=1;exitDx=0;exitDy=0;entryX=0;entryY=0;entryDx=0;entryDy=0;" edge="1" parent="1" source="m8yTQZksTK6Z0LUmSfKA-11" target="m8yTQZksTK6Z0LUmSfKA-11">
          <mxGeometry width="50" height="50" relative="1" as="geometry">
            <mxPoint x="3140" y="2080" as="sourcePoint" />
            <mxPoint x="3140" y="240" as="targetPoint" />
          </mxGeometry>
        </mxCell>
        <mxCell id="m8yTQZksTK6Z0LUmSfKA-11" value="&lt;font style=&quot;font-size: 56px;&quot;&gt;LSTM&lt;sub&gt;t+1&lt;/sub&gt;&lt;/font&gt;" style="text;html=1;align=center;verticalAlign=middle;whiteSpace=wrap;rounded=0;strokeWidth=5;" vertex="1" parent="1">
          <mxGeometry x="2870" y="400" width="250" height="1480" as="geometry" />
        </mxCell>
        <mxCell id="m8yTQZksTK6Z0LUmSfKA-12" value="" style="endArrow=none;html=1;rounded=0;exitX=1;exitY=0;exitDx=0;exitDy=0;entryX=0;entryY=0;entryDx=0;entryDy=0;strokeWidth=5;" edge="1" parent="1" source="m8yTQZksTK6Z0LUmSfKA-11" target="m8yTQZksTK6Z0LUmSfKA-11">
          <mxGeometry width="50" height="50" relative="1" as="geometry">
            <mxPoint x="3370" y="330" as="sourcePoint" />
            <mxPoint x="3420" y="280" as="targetPoint" />
          </mxGeometry>
        </mxCell>
        <mxCell id="m8yTQZksTK6Z0LUmSfKA-14" value="" style="endArrow=none;html=1;rounded=0;strokeWidth=5;" edge="1" parent="1">
          <mxGeometry width="50" height="50" relative="1" as="geometry">
            <mxPoint x="800" y="1880" as="sourcePoint" />
            <mxPoint x="800" y="400" as="targetPoint" />
          </mxGeometry>
        </mxCell>
        <mxCell id="m8yTQZksTK6Z0LUmSfKA-15" value="" style="endArrow=none;html=1;rounded=0;strokeWidth=5;" edge="1" parent="1">
          <mxGeometry width="50" height="50" relative="1" as="geometry">
            <mxPoint x="2480" y="1880" as="sourcePoint" />
            <mxPoint x="2480" y="400" as="targetPoint" />
          </mxGeometry>
        </mxCell>
        <mxCell id="m8yTQZksTK6Z0LUmSfKA-16" value="" style="endArrow=none;html=1;rounded=0;strokeWidth=5;" edge="1" parent="1">
          <mxGeometry width="50" height="50" relative="1" as="geometry">
            <mxPoint x="800" y="400" as="sourcePoint" />
            <mxPoint x="2480" y="400" as="targetPoint" />
          </mxGeometry>
        </mxCell>
        <mxCell id="m8yTQZksTK6Z0LUmSfKA-17" value="" style="endArrow=none;html=1;rounded=0;strokeWidth=5;" edge="1" parent="1">
          <mxGeometry width="50" height="50" relative="1" as="geometry">
            <mxPoint x="800" y="1880" as="sourcePoint" />
            <mxPoint x="2480" y="1880" as="targetPoint" />
          </mxGeometry>
        </mxCell>
        <mxCell id="m8yTQZksTK6Z0LUmSfKA-19" value="" style="endArrow=classic;html=1;rounded=0;strokeWidth=5;" edge="1" parent="1">
          <mxGeometry width="50" height="50" relative="1" as="geometry">
            <mxPoint x="400" y="1638.46" as="sourcePoint" />
            <mxPoint x="799" y="1638.46" as="targetPoint" />
          </mxGeometry>
        </mxCell>
        <mxCell id="m8yTQZksTK6Z0LUmSfKA-20" value="" style="endArrow=classic;html=1;rounded=0;exitX=0.999;exitY=0.1;exitDx=0;exitDy=0;exitPerimeter=0;strokeWidth=5;" edge="1" parent="1">
          <mxGeometry width="50" height="50" relative="1" as="geometry">
            <mxPoint x="399.9999999999998" y="640" as="sourcePoint" />
            <mxPoint x="800.24" y="640" as="targetPoint" />
          </mxGeometry>
        </mxCell>
        <mxCell id="m8yTQZksTK6Z0LUmSfKA-21" value="" style="endArrow=classic;html=1;rounded=0;strokeWidth=5;" edge="1" parent="1">
          <mxGeometry width="50" height="50" relative="1" as="geometry">
            <mxPoint x="2480" y="1640" as="sourcePoint" />
            <mxPoint x="2870" y="1640" as="targetPoint" />
          </mxGeometry>
        </mxCell>
        <mxCell id="m8yTQZksTK6Z0LUmSfKA-22" value="" style="endArrow=classic;html=1;rounded=0;strokeWidth=5;" edge="1" parent="1">
          <mxGeometry width="50" height="50" relative="1" as="geometry">
            <mxPoint x="2480" y="640" as="sourcePoint" />
            <mxPoint x="2870" y="640" as="targetPoint" />
          </mxGeometry>
        </mxCell>
        <mxCell id="m8yTQZksTK6Z0LUmSfKA-23" value="&lt;font style=&quot;font-size: 56px;&quot;&gt;H&lt;sub&gt;t-1&lt;/sub&gt;&lt;/font&gt;" style="text;html=1;align=center;verticalAlign=middle;whiteSpace=wrap;rounded=0;strokeWidth=5;" vertex="1" parent="1">
          <mxGeometry x="470" y="1520" width="240" height="120" as="geometry" />
        </mxCell>
        <mxCell id="m8yTQZksTK6Z0LUmSfKA-25" value="&lt;font style=&quot;font-size: 56px;&quot;&gt;C&lt;sub&gt;t-1&lt;/sub&gt;&lt;/font&gt;" style="text;html=1;align=center;verticalAlign=middle;whiteSpace=wrap;rounded=0;strokeWidth=5;" vertex="1" parent="1">
          <mxGeometry x="470" y="520" width="240" height="120" as="geometry" />
        </mxCell>
        <mxCell id="m8yTQZksTK6Z0LUmSfKA-26" value="&lt;font style=&quot;font-size: 56px;&quot;&gt;C&lt;sub&gt;t&lt;/sub&gt;&lt;/font&gt;" style="text;html=1;align=center;verticalAlign=middle;whiteSpace=wrap;rounded=0;strokeWidth=5;" vertex="1" parent="1">
          <mxGeometry x="2550" y="520" width="240" height="120" as="geometry" />
        </mxCell>
        <mxCell id="m8yTQZksTK6Z0LUmSfKA-27" value="&lt;font style=&quot;font-size: 56px;&quot;&gt;H&lt;sub&gt;t&lt;/sub&gt;&lt;/font&gt;" style="text;html=1;align=center;verticalAlign=middle;whiteSpace=wrap;rounded=0;strokeWidth=5;" vertex="1" parent="1">
          <mxGeometry x="2550" y="1520" width="240" height="120" as="geometry" />
        </mxCell>
        <mxCell id="m8yTQZksTK6Z0LUmSfKA-29" value="&lt;font style=&quot;font-size: 56px;&quot;&gt;G&lt;sub&gt;t&lt;/sub&gt;&lt;/font&gt;" style="text;html=1;align=center;verticalAlign=middle;whiteSpace=wrap;rounded=0;strokeWidth=5;" vertex="1" parent="1">
          <mxGeometry x="1645" y="1215" width="110" height="120" as="geometry" />
        </mxCell>
        <mxCell id="m8yTQZksTK6Z0LUmSfKA-30" value="&lt;font style=&quot;font-size: 56px;&quot;&gt;X&lt;sub&gt;t&lt;/sub&gt;&lt;/font&gt;" style="text;html=1;align=center;verticalAlign=middle;whiteSpace=wrap;rounded=0;strokeWidth=5;" vertex="1" parent="1">
          <mxGeometry x="800" y="2040" width="240" height="120" as="geometry" />
        </mxCell>
        <mxCell id="m8yTQZksTK6Z0LUmSfKA-31" value="" style="endArrow=classic;html=1;rounded=0;exitX=0.5;exitY=0;exitDx=0;exitDy=0;strokeWidth=5;" edge="1" parent="1" source="m8yTQZksTK6Z0LUmSfKA-30">
          <mxGeometry width="50" height="50" relative="1" as="geometry">
            <mxPoint x="870" y="1990" as="sourcePoint" />
            <mxPoint x="920" y="1880" as="targetPoint" />
          </mxGeometry>
        </mxCell>
        <mxCell id="m8yTQZksTK6Z0LUmSfKA-32" value="&lt;font style=&quot;font-size: 56px;&quot;&gt;H&lt;sub&gt;t&lt;/sub&gt;&lt;/font&gt;" style="text;html=1;align=center;verticalAlign=middle;whiteSpace=wrap;rounded=0;strokeWidth=5;" vertex="1" parent="1">
          <mxGeometry x="2240" y="160" width="240" height="120" as="geometry" />
        </mxCell>
        <mxCell id="m8yTQZksTK6Z0LUmSfKA-33" value="" style="endArrow=classic;html=1;rounded=0;strokeWidth=5;entryX=0.5;entryY=1;entryDx=0;entryDy=0;" edge="1" parent="1" target="m8yTQZksTK6Z0LUmSfKA-32">
          <mxGeometry width="50" height="50" relative="1" as="geometry">
            <mxPoint x="2360" y="400" as="sourcePoint" />
            <mxPoint x="2310" y="450" as="targetPoint" />
          </mxGeometry>
        </mxCell>
        <mxCell id="m8yTQZksTK6Z0LUmSfKA-36" value="&lt;font style=&quot;font-size: 98px;&quot;&gt;+&lt;/font&gt;" style="ellipse;whiteSpace=wrap;html=1;aspect=fixed;strokeWidth=5;" vertex="1" parent="1">
          <mxGeometry x="1566" y="576" width="130" height="130" as="geometry" />
        </mxCell>
        <mxCell id="m8yTQZksTK6Z0LUmSfKA-38" value="&lt;span style=&quot;color: rgb(34, 34, 34); font-family: &amp;quot;times new roman&amp;quot;; background-color: rgb(255, 255, 255);&quot;&gt;&lt;font style=&quot;font-size: 98px;&quot;&gt;×&lt;/font&gt;&lt;/span&gt;" style="ellipse;whiteSpace=wrap;html=1;aspect=fixed;strokeWidth=5;" vertex="1" parent="1">
          <mxGeometry x="1040" y="575" width="130" height="130" as="geometry" />
        </mxCell>
        <mxCell id="m8yTQZksTK6Z0LUmSfKA-39" value="&lt;font style=&quot;font-size: 65px;&quot;&gt;sigm&lt;/font&gt;" style="rounded=0;whiteSpace=wrap;html=1;strokeWidth=5;" vertex="1" parent="1">
          <mxGeometry x="1019" y="1347" width="170" height="90" as="geometry" />
        </mxCell>
        <mxCell id="m8yTQZksTK6Z0LUmSfKA-40" value="" style="endArrow=classic;html=1;rounded=0;entryX=0.5;entryY=1;entryDx=0;entryDy=0;strokeWidth=5;" edge="1" parent="1" target="m8yTQZksTK6Z0LUmSfKA-39">
          <mxGeometry width="50" height="50" relative="1" as="geometry">
            <mxPoint x="800" y="1640" as="sourcePoint" />
            <mxPoint x="1540" y="1200" as="targetPoint" />
            <Array as="points">
              <mxPoint x="1104" y="1640" />
            </Array>
          </mxGeometry>
        </mxCell>
        <mxCell id="m8yTQZksTK6Z0LUmSfKA-41" value="" style="endArrow=none;html=1;rounded=0;strokeWidth=5;" edge="1" parent="1">
          <mxGeometry width="50" height="50" relative="1" as="geometry">
            <mxPoint x="920" y="1880" as="sourcePoint" />
            <mxPoint x="920" y="1640" as="targetPoint" />
          </mxGeometry>
        </mxCell>
        <mxCell id="m8yTQZksTK6Z0LUmSfKA-42" value="" style="endArrow=classic;html=1;rounded=0;entryX=0.5;entryY=1;entryDx=0;entryDy=0;strokeWidth=5;exitX=0.5;exitY=0;exitDx=0;exitDy=0;" edge="1" parent="1" source="m8yTQZksTK6Z0LUmSfKA-39" target="m8yTQZksTK6Z0LUmSfKA-38">
          <mxGeometry width="50" height="50" relative="1" as="geometry">
            <mxPoint x="810" y="1650" as="sourcePoint" />
            <mxPoint x="1105" y="1430" as="targetPoint" />
            <Array as="points" />
          </mxGeometry>
        </mxCell>
        <mxCell id="m8yTQZksTK6Z0LUmSfKA-43" value="&lt;font style=&quot;font-size: 56px;&quot;&gt;F&lt;sub&gt;t&lt;/sub&gt;&lt;/font&gt;" style="text;html=1;align=center;verticalAlign=middle;whiteSpace=wrap;rounded=0;strokeWidth=5;" vertex="1" parent="1">
          <mxGeometry x="970" y="960" width="110" height="120" as="geometry" />
        </mxCell>
        <mxCell id="m8yTQZksTK6Z0LUmSfKA-45" value="" style="endArrow=classic;html=1;rounded=0;entryX=0;entryY=0.5;entryDx=0;entryDy=0;strokeWidth=5;" edge="1" parent="1" target="m8yTQZksTK6Z0LUmSfKA-38">
          <mxGeometry width="50" height="50" relative="1" as="geometry">
            <mxPoint x="800" y="640" as="sourcePoint" />
            <mxPoint x="1360" y="850" as="targetPoint" />
          </mxGeometry>
        </mxCell>
        <mxCell id="m8yTQZksTK6Z0LUmSfKA-46" value="" style="endArrow=classic;html=1;rounded=0;entryX=0;entryY=0.5;entryDx=0;entryDy=0;strokeWidth=5;exitX=1;exitY=0.5;exitDx=0;exitDy=0;" edge="1" parent="1" source="m8yTQZksTK6Z0LUmSfKA-38" target="m8yTQZksTK6Z0LUmSfKA-36">
          <mxGeometry width="50" height="50" relative="1" as="geometry">
            <mxPoint x="810" y="650" as="sourcePoint" />
            <mxPoint x="1050" y="650" as="targetPoint" />
          </mxGeometry>
        </mxCell>
        <mxCell id="m8yTQZksTK6Z0LUmSfKA-49" style="edgeStyle=orthogonalEdgeStyle;rounded=0;orthogonalLoop=1;jettySize=auto;html=1;entryX=0.5;entryY=1;entryDx=0;entryDy=0;strokeWidth=5;" edge="1" parent="1" source="m8yTQZksTK6Z0LUmSfKA-48" target="m8yTQZksTK6Z0LUmSfKA-36">
          <mxGeometry relative="1" as="geometry" />
        </mxCell>
        <mxCell id="m8yTQZksTK6Z0LUmSfKA-48" value="&lt;span style=&quot;color: rgb(34, 34, 34); font-family: &amp;quot;times new roman&amp;quot;; background-color: rgb(255, 255, 255);&quot;&gt;&lt;font style=&quot;font-size: 98px;&quot;&gt;×&lt;/font&gt;&lt;/span&gt;" style="ellipse;whiteSpace=wrap;html=1;aspect=fixed;strokeWidth=5;" vertex="1" parent="1">
          <mxGeometry x="1567" y="1080" width="130" height="130" as="geometry" />
        </mxCell>
        <mxCell id="m8yTQZksTK6Z0LUmSfKA-50" value="&lt;font style=&quot;font-size: 65px;&quot;&gt;sigm&lt;/font&gt;" style="rounded=0;whiteSpace=wrap;html=1;strokeWidth=5;" vertex="1" parent="1">
          <mxGeometry x="1282" y="1348" width="170" height="90" as="geometry" />
        </mxCell>
        <mxCell id="m8yTQZksTK6Z0LUmSfKA-52" style="edgeStyle=orthogonalEdgeStyle;rounded=0;orthogonalLoop=1;jettySize=auto;html=1;entryX=0.5;entryY=1;entryDx=0;entryDy=0;strokeWidth=5;" edge="1" parent="1" source="m8yTQZksTK6Z0LUmSfKA-51" target="m8yTQZksTK6Z0LUmSfKA-48">
          <mxGeometry relative="1" as="geometry" />
        </mxCell>
        <mxCell id="m8yTQZksTK6Z0LUmSfKA-51" value="&lt;font style=&quot;font-size: 65px;&quot;&gt;tanh&lt;/font&gt;" style="rounded=0;whiteSpace=wrap;html=1;strokeWidth=5;" vertex="1" parent="1">
          <mxGeometry x="1547" y="1348" width="170" height="90" as="geometry" />
        </mxCell>
        <mxCell id="m8yTQZksTK6Z0LUmSfKA-53" value="" style="endArrow=classic;html=1;rounded=0;entryX=0.5;entryY=1;entryDx=0;entryDy=0;strokeWidth=5;" edge="1" parent="1" target="m8yTQZksTK6Z0LUmSfKA-50">
          <mxGeometry width="50" height="50" relative="1" as="geometry">
            <mxPoint x="1100" y="1640" as="sourcePoint" />
            <mxPoint x="1780" y="1290" as="targetPoint" />
            <Array as="points">
              <mxPoint x="1367" y="1640" />
            </Array>
          </mxGeometry>
        </mxCell>
        <mxCell id="m8yTQZksTK6Z0LUmSfKA-54" value="" style="endArrow=classic;html=1;rounded=0;exitX=0.5;exitY=0;exitDx=0;exitDy=0;entryX=0;entryY=0.5;entryDx=0;entryDy=0;strokeWidth=5;" edge="1" parent="1" source="m8yTQZksTK6Z0LUmSfKA-50" target="m8yTQZksTK6Z0LUmSfKA-48">
          <mxGeometry width="50" height="50" relative="1" as="geometry">
            <mxPoint x="1460" y="1300" as="sourcePoint" />
            <mxPoint x="1510" y="1250" as="targetPoint" />
            <Array as="points">
              <mxPoint x="1367" y="1145" />
            </Array>
          </mxGeometry>
        </mxCell>
        <mxCell id="m8yTQZksTK6Z0LUmSfKA-55" value="&lt;font style=&quot;font-size: 56px;&quot;&gt;I&lt;sub&gt;t&lt;/sub&gt;&lt;/font&gt;" style="text;html=1;align=center;verticalAlign=middle;whiteSpace=wrap;rounded=0;strokeWidth=5;" vertex="1" parent="1">
          <mxGeometry x="1340" y="1020" width="240" height="120" as="geometry" />
        </mxCell>
        <mxCell id="m8yTQZksTK6Z0LUmSfKA-56" value="" style="endArrow=classic;html=1;rounded=0;entryX=0.5;entryY=1;entryDx=0;entryDy=0;strokeWidth=5;" edge="1" parent="1">
          <mxGeometry width="50" height="50" relative="1" as="geometry">
            <mxPoint x="1359" y="1640" as="sourcePoint" />
            <mxPoint x="1631" y="1438" as="targetPoint" />
            <Array as="points">
              <mxPoint x="1632" y="1640" />
            </Array>
          </mxGeometry>
        </mxCell>
        <mxCell id="m8yTQZksTK6Z0LUmSfKA-58" value="&lt;font style=&quot;font-size: 56px;&quot;&gt;C&lt;sub&gt;t&lt;/sub&gt;&lt;/font&gt;" style="text;html=1;align=center;verticalAlign=middle;whiteSpace=wrap;rounded=0;strokeWidth=5;" vertex="1" parent="1">
          <mxGeometry x="1700" y="520" width="140" height="120" as="geometry" />
        </mxCell>
        <mxCell id="m8yTQZksTK6Z0LUmSfKA-69" style="edgeStyle=orthogonalEdgeStyle;rounded=0;orthogonalLoop=1;jettySize=auto;html=1;entryX=0;entryY=0.5;entryDx=0;entryDy=0;strokeWidth=5;" edge="1" parent="1" source="m8yTQZksTK6Z0LUmSfKA-60" target="m8yTQZksTK6Z0LUmSfKA-62">
          <mxGeometry relative="1" as="geometry">
            <Array as="points">
              <mxPoint x="1905" y="1145" />
            </Array>
          </mxGeometry>
        </mxCell>
        <mxCell id="m8yTQZksTK6Z0LUmSfKA-60" value="&lt;font style=&quot;font-size: 65px;&quot;&gt;sigm&lt;/font&gt;" style="rounded=0;whiteSpace=wrap;html=1;strokeWidth=5;" vertex="1" parent="1">
          <mxGeometry x="1825" y="1350" width="170" height="90" as="geometry" />
        </mxCell>
        <mxCell id="m8yTQZksTK6Z0LUmSfKA-61" value="" style="endArrow=classic;html=1;rounded=0;entryX=0.5;entryY=1;entryDx=0;entryDy=0;strokeWidth=5;" edge="1" parent="1" target="m8yTQZksTK6Z0LUmSfKA-60">
          <mxGeometry width="50" height="50" relative="1" as="geometry">
            <mxPoint x="1630" y="1640" as="sourcePoint" />
            <mxPoint x="1910" y="1405" as="targetPoint" />
            <Array as="points">
              <mxPoint x="1910" y="1640" />
            </Array>
          </mxGeometry>
        </mxCell>
        <mxCell id="m8yTQZksTK6Z0LUmSfKA-62" value="&lt;span style=&quot;color: rgb(34, 34, 34); font-family: &amp;quot;times new roman&amp;quot;; background-color: rgb(255, 255, 255);&quot;&gt;&lt;font style=&quot;font-size: 98px;&quot;&gt;×&lt;/font&gt;&lt;/span&gt;" style="ellipse;whiteSpace=wrap;html=1;aspect=fixed;strokeWidth=5;" vertex="1" parent="1">
          <mxGeometry x="2070" y="1080" width="130" height="130" as="geometry" />
        </mxCell>
        <mxCell id="m8yTQZksTK6Z0LUmSfKA-66" style="edgeStyle=orthogonalEdgeStyle;rounded=0;orthogonalLoop=1;jettySize=auto;html=1;entryX=0.5;entryY=0;entryDx=0;entryDy=0;strokeWidth=5;" edge="1" parent="1" target="m8yTQZksTK6Z0LUmSfKA-62">
          <mxGeometry relative="1" as="geometry">
            <mxPoint x="2135" y="900" as="sourcePoint" />
          </mxGeometry>
        </mxCell>
        <mxCell id="m8yTQZksTK6Z0LUmSfKA-65" value="" style="endArrow=classic;html=1;rounded=0;strokeWidth=5;exitX=1;exitY=0.5;exitDx=0;exitDy=0;" edge="1" parent="1" source="m8yTQZksTK6Z0LUmSfKA-36">
          <mxGeometry width="50" height="50" relative="1" as="geometry">
            <mxPoint x="2200" y="640" as="sourcePoint" />
            <mxPoint x="2480" y="640" as="targetPoint" />
          </mxGeometry>
        </mxCell>
        <mxCell id="m8yTQZksTK6Z0LUmSfKA-71" value="&lt;font style=&quot;&quot;&gt;&lt;sub style=&quot;&quot;&gt;&lt;span style=&quot;font-size: 56px;&quot;&gt;O&lt;sub&gt;t&lt;/sub&gt;&lt;/span&gt;&lt;/sub&gt;&lt;/font&gt;" style="text;html=1;align=center;verticalAlign=middle;whiteSpace=wrap;rounded=0;strokeWidth=5;" vertex="1" parent="1">
          <mxGeometry x="1930" y="1025" width="110" height="120" as="geometry" />
        </mxCell>
        <mxCell id="m8yTQZksTK6Z0LUmSfKA-72" value="&lt;font style=&quot;font-size: 65px;&quot;&gt;tanh&lt;/font&gt;" style="rounded=0;whiteSpace=wrap;html=1;strokeWidth=5;" vertex="1" parent="1">
          <mxGeometry x="2050" y="820" width="170" height="90" as="geometry" />
        </mxCell>
        <mxCell id="m8yTQZksTK6Z0LUmSfKA-73" style="edgeStyle=orthogonalEdgeStyle;rounded=0;orthogonalLoop=1;jettySize=auto;html=1;entryX=0.5;entryY=0;entryDx=0;entryDy=0;strokeWidth=5;" edge="1" parent="1" target="m8yTQZksTK6Z0LUmSfKA-72">
          <mxGeometry relative="1" as="geometry">
            <mxPoint x="2135" y="640" as="sourcePoint" />
            <mxPoint x="2240" y="805" as="targetPoint" />
          </mxGeometry>
        </mxCell>
        <mxCell id="m8yTQZksTK6Z0LUmSfKA-74" value="" style="endArrow=classic;html=1;rounded=0;exitX=0.5;exitY=1;exitDx=0;exitDy=0;strokeWidth=5;" edge="1" parent="1" source="m8yTQZksTK6Z0LUmSfKA-62">
          <mxGeometry width="50" height="50" relative="1" as="geometry">
            <mxPoint x="2115" y="1320" as="sourcePoint" />
            <mxPoint x="2480" y="1640" as="targetPoint" />
            <Array as="points">
              <mxPoint x="2135" y="1640" />
            </Array>
          </mxGeometry>
        </mxCell>
        <mxCell id="m8yTQZksTK6Z0LUmSfKA-75" value="&lt;font style=&quot;font-size: 56px;&quot;&gt;H&lt;sub&gt;t&lt;/sub&gt;&lt;/font&gt;" style="text;html=1;align=center;verticalAlign=middle;whiteSpace=wrap;rounded=0;strokeWidth=5;" vertex="1" parent="1">
          <mxGeometry x="2135" y="1305" width="95" height="120" as="geometry" />
        </mxCell>
        <mxCell id="m8yTQZksTK6Z0LUmSfKA-76" value="" style="endArrow=classic;html=1;rounded=0;strokeWidth=5;entryX=0.5;entryY=1;entryDx=0;entryDy=0;" edge="1" parent="1">
          <mxGeometry width="50" height="50" relative="1" as="geometry">
            <mxPoint x="2360" y="620" as="sourcePoint" />
            <mxPoint x="2360" y="405" as="targetPoint" />
          </mxGeometry>
        </mxCell>
        <mxCell id="m8yTQZksTK6Z0LUmSfKA-77" value="" style="endArrow=none;html=1;rounded=0;strokeColor=default;strokeWidth=5;" edge="1" parent="1">
          <mxGeometry width="50" height="50" relative="1" as="geometry">
            <mxPoint x="2360" y="1640" as="sourcePoint" />
            <mxPoint x="2360" y="660" as="targetPoint" />
          </mxGeometry>
        </mxCell>
      </root>
    </mxGraphModel>
  </diagram>
</mxfile>
